<svg version="1.1" width="16" viewBox="0 0 16 16" height="16" xmlns="http://www.w3.org/2000/svg"
  shape-rendering="crispEdges">
  <rect x="5" y="1" width="3" height="1" fill="#000000" />
  <rect x="5" y="2" width="1" height="12" fill="#000000" />
  <rect x="6" y="2" width="1" height="11" fill="#FFFFFF" />
  <rect x="7" y="2" width="2" height="1" fill="#000000" />
  <rect x="7" y="3" width="1" height="9" fill="#FFFFFF" />
  <rect x="8" y="3" width="2" height="1" fill="#000000" />
  <rect x="8" y="4" width="1" height="7" fill="#FFFFFF" />
  <rect x="9" y="4" width="2" height="1" fill="#000000" />
  <rect x="9" y="5" width="1" height="5" fill="#FFFFFF" />
  <rect x="10" y="5" width="2" height="1" fill="#000000" />
  <rect x="10" y="6" width="1" height="3" fill="#FFFFFF" />
  <rect x="11" y="6" width="2" height="1" fill="#000000" />
  <rect x="11" y="7" width="1" height="1" fill="#FFFFFF" />
  <rect x="12" y="7" width="1" height="2" fill="#000000" />
  <rect x="11" y="8" width="1" height="2" fill="#000000" />
  <rect x="10" y="9" width="1" height="2" fill="#000000" />
  <rect x="9" y="10" width="1" height="2" fill="#000000" />
  <rect x="8" y="11" width="1" height="2" fill="#000000" />
  <rect x="7" y="12" width="1" height="2" fill="#000000" />
  <rect x="6" y="13" width="1" height="1" fill="#000000" />
</svg>